<svg height="35" viewBox="0 0 306 35" width="306" xmlns="http://www.w3.org/2000/svg"><path d="m463.648 607.64-3.456 4.128v5.232h-11.232v-32.64h11.232v11.52l9.744-11.52h13.152l-11.808 14.16 12.288 18.48h-13.152zm34.704-24c10.752 0 17.904 7.296 17.904 17.04s-7.152 17.04-17.904 17.04-17.904-7.296-17.904-17.04 7.152-17.04 17.904-17.04zm0 23.568c3.888 0 6.48-3.072 6.48-6.528s-2.592-6.528-6.48-6.528-6.48 3.072-6.48 6.528 2.592 6.528 6.48 6.528zm58.752-22.848v32.64h-11.232v-12.912l-4.8 7.008v.144h-5.664v-.144l-4.8-7.008v12.912h-11.232v-32.64h8.88l9.984 13.056 9.984-13.056zm41.568 0v32.64h-11.232v-12.912l-4.8 7.008v.144h-5.664v-.144l-4.8-7.008v12.912h-11.232v-32.64h8.88l9.984 13.056 9.984-13.056zm36 0v16.32c0 11.232-5.856 17.04-16.32 17.04s-16.32-5.808-16.32-17.04v-16.32h11.424v16.8c0 3.888 1.776 6.048 4.896 6.048s4.896-2.16 4.896-6.048v-16.8zm34.944 0v32.64h-8.832l-.048-.144-11.472-12.816v12.96h-11.232v-32.64h8.88l11.472 13.104v-13.104zm15.072 0v32.64h-11.232v-32.64zm31.92 9.6h-9.024v23.04h-11.232v-23.04h-9.024v-9.6h29.28zm24.672 15.072.048 7.968h-11.232l-.048-7.968-12.72-24.672h12.432l5.856 11.424 5.952-11.424h12.432z" fill="#333" transform="translate(-448 -583)"/></svg>