<?xml version="1.0" encoding="utf-8"?>
<!-- Generator: Adobe Illustrator 25.3.1, SVG Export Plug-In . SVG Version: 6.00 Build 0)  -->
<svg version="1.1" id="Layer_1" xmlns="http://www.w3.org/2000/svg" xmlns:xlink="http://www.w3.org/1999/xlink" x="0px" y="0px"
	 viewBox="0 0 264 64" style="enable-background:new 0 0 264 64;" xml:space="preserve">
<style type="text/css">
	.st0{fill:#8036CA;}
</style>
<g id="Page-1">
	<text transform="matrix(1 0 0 1 300 395)" style="font-family:'MyriadPro-Regular'; font-size:12px;">https://ldnwebperf.org/</text>
	<g>
		<g>
			<path d="M12.8,26.3l-4.7-0.7v-2.3h13.3v2.3l-5.6,0.7H12.8z M32.7,23.4l4.9,16l-1.4-0.7l5.1-15.3H45l-8.4,23.4h-4.3
				c-3.8-10-5.5-14.9-6.1-18.3l2.3-0.5l-6.5,18.8h-4.3L9.1,23.4h9.2l4.7,16l-1.1-0.7l5-15.3H32.7z M23.5,25.6v-2.3h12.2v2.3
				l-4.7,0.7h-2.4L23.5,25.6z M41.8,26.1L38,25.6v-2.3h8.7v2.3l-4.2,0.5H41.8z"/>
			<path d="M71.3,33.1c0,1,0,1.7-0.2,2.5H51.9v-2.7h8.1c2.3,0,2.9-0.8,2.9-3.2c0-3.3-1.2-4.5-2.4-4.5c-1.6,0-2.7,2-2.7,9
				c0,5.8,2.8,8.2,6,8.2c2.4,0,4.1-1,5.5-2.3l1.9,1.8c-2.1,3.9-5.7,5.6-10.4,5.6c-7.2,0-12.5-4.6-12.5-12.5
				c0-8.3,6.6-12.4,12.9-12.4C67.9,22.6,71.3,27.3,71.3,33.1z"/>
			<path d="M73.6,44.3l4.2-1l-2.2,3.4c0.1-2.2,0.1-7.1,0.1-10.1V16.8l-2.6-0.3v-2.2l10.9-2.2l0.8,0.5l-0.2,6.7v6.6l0.1,0.6v16.9
				l-1.5,4.1l-9.8-0.7V44.3z M91.4,34.9c0-5.5-1.7-7.5-4.2-7.5c-2.8,0-4.9,3.4-5.7,4.3L81,30.8c2.7-5.5,6-8.3,10.6-8.3
				c5.3,0,9.5,4.1,9.5,12.3c0,7.9-5.1,12.6-10.4,12.6c-4.8,0-7.2-2.9-9.2-7.8l0.4-1c1.8,2.4,2.8,4.2,5.2,4.2
				C89.7,42.9,91.4,40.3,91.4,34.9z"/>
			<path d="M105.7,33.7c0-2.6,0-3.5-0.1-5.4l-2.6-0.4v-2l10.5-3.3l0.8,0.4l0.3,3.6l0.2,1v15.1l-0.1,0.7v2.9c0,2.9,0,6.4,0.1,11h-9.3
				c0.1-4.6,0.1-8.1,0.1-11V33.7z M117.3,54.9v2.5h-13.9v-2.5l4.3-1h6.1L117.3,54.9z M117.1,27.3c-2.8,0-4.9,3.4-5.7,4.3l-0.4-0.8
				c2.7-5.5,6-8.3,10.6-8.3c5.3,0,9.5,4.1,9.5,12.3c0,7.9-5.1,12.6-10.4,12.6c-4.8,0-7.2-2.9-9.2-7.8l0.4-0.9
				c1.8,2.4,2.8,4.1,5.2,4.1c2.5,0,4.2-2.5,4.2-8S119.6,27.3,117.1,27.3z"/>
			<path d="M156.4,33.1c0,1,0,1.7-0.2,2.5h-19.2v-2.7h8.1c2.3,0,2.9-0.8,2.9-3.2c0-3.3-1.2-4.5-2.4-4.5c-1.6,0-2.7,2-2.7,9
				c0,5.8,2.8,8.2,6,8.2c2.4,0,4.1-1,5.5-2.3l1.9,1.8c-2.1,3.9-5.7,5.6-10.4,5.6c-7.2,0-12.5-4.6-12.5-12.5
				c0-8.3,6.6-12.4,12.9-12.4C152.9,22.6,156.4,27.3,156.4,33.1z"/>
			<path d="M160.7,36.6v-3c0-2.6,0-3.4-0.1-5.3l-2.6-0.4v-2l10.6-3.3l0.9,0.5l0.4,5.9v7.7c0,3,0,7.9,0.1,10.1h-9.4
				C160.6,44.6,160.7,39.6,160.7,36.6z M158.3,44.3l4.3-1h6.6l4.3,1v2.4h-15.3V44.3z M165.6,30.4h3.9l-0.4,1.7
				c0.6-6.4,4.1-9.5,7-9.5c2.4,0,4.1,1.3,4.5,4.3c-0.1,2.6-1.7,4.1-3.6,4.1c-1.6,0-2.8-0.8-4-2.6l-1.4-2.1l1.8,1.2
				c-1.2,1.2-3,3.7-3.4,6.3l-4.2-0.5V30.4z"/>
			<path d="M184.1,27h-2.7v-3.2l5.8-0.7l-3.1,1.6c0.5-5.5,2.4-8.1,4.4-9.8c2.7-2.4,5.6-3.3,8.5-3.3c2.8,0,5.6,0.9,6.2,3.8
				c0,2.1-1.3,3.6-3.6,3.6c-1.8,0-3.3-1.2-4.7-4.2l-0.7-1.6l4.9-1.1l0.3,1.4c-0.3-0.4-1-0.7-1.5-0.7c-1.7,0-2.9,1.5-3.5,2.3
				c-1.5,2.4-1.5,5.8-1.2,10.9v10.6c0,3.4,0,6.7,0.1,10.1h-9.4c0.1-3.4,0.1-6.7,0.1-10.1V27z M196.7,44.3v2.4h-14.9v-2.4l4.5-1h6.4
				L196.7,44.3z M197.6,23.4V27h-8.9v-3.6H197.6z"/>
		</g>
	</g>
	<text transform="matrix(1 0 0 1 300 395)" style="display:none; font-family:'MyriadPro-Regular'; font-size:12px;">https://ldnwebperf.org/</text>
	<g>
		<g>
			<path class="st0" d="M204.5,46.7c0.1-2.2,0.1-7.1,0.1-10.1v-2.3c0-2.6,0-4.1-0.1-6l-2.6-0.4v-2l11.1-3.3l0.9,0.5l-0.1,7.2v6.4
				c0,3,0,7.9,0.1,10.1H204.5z M215.9,44.3v2.4h-13.4v-2.4l4.1-1h4.7L215.9,44.3z M204.7,15.6c0-2.4,2-4.1,4.4-4.1s4.4,1.7,4.4,4.1
				c0,2.4-2,4.1-4.4,4.1S204.7,18,204.7,15.6z"/>
			<path class="st0" d="M217.7,45.1L218,39h4.4l1,6.7l-2.8-0.9v-2.1c2.3,1.2,3.9,1.9,6,1.9c2.4,0,3.8-0.7,3.8-2.5
				c0-1.3-0.7-2.3-3.9-3.1l-2.7-0.7c-3.8-1-5.8-3.7-5.8-7.4c0-4.8,3.8-8.3,10.7-8.3c2.9,0,5.3,0.7,8,1.9l-0.4,5.4h-4.4l-1.5-6.3
				l3,1.3v2c-1.8-1.1-2.6-1.4-4.9-1.4c-1.8,0-3.2,0.8-3.2,2.4c0,1,0.5,2,3.8,2.9l2.7,0.7c4.5,1.2,6.3,3.8,6.3,7.6
				c0,5.7-4.5,8.4-11.5,8.4C223.3,47.5,220.3,46.7,217.7,45.1z"/>
			<path class="st0" d="M253.7,43c0.8,0,1.5-0.3,2.4-1l1.2,1.1c-1.3,2.8-3.6,4.4-7.6,4.4c-4.8,0-7.5-2-7.5-7.2c0-1.9,0-3.3,0-5.1V27
				h-2.7v-3.2l5.6-0.7l-3.1,2.1l3.6-8.6h5.7v8.7v14.5C251.3,42,252.4,43,253.7,43z M255.8,23.4V27h-8.9v-3.6H255.8z"/>
		</g>
	</g>
</g>
</svg>
