<?xml version="1.0" encoding="utf-8"?>
<!-- Generator: Adobe Illustrator 25.3.1, SVG Export Plug-In . SVG Version: 6.00 Build 0)  -->
<svg version="1.1" id="Layer_1" xmlns="http://www.w3.org/2000/svg" xmlns:xlink="http://www.w3.org/1999/xlink" x="0px" y="0px"
	 viewBox="0 0 600 300" style="enable-background:new 0 0 600 300;" xml:space="preserve">
<style type="text/css">
	.st0{fill:#764E9F;}
	.st1{fill:#D7D6D6;}
	.st2{fill:#FFFFFF;}
	.st3{fill:#171717;}
	.st4{opacity:0.12;fill:#6D6C6D;enable-background:new    ;}
	.st5{opacity:0.13;fill:#6D6C6D;enable-background:new    ;}
	.st6{opacity:0.1;fill:#6D6C6D;enable-background:new    ;}
	.st7{opacity:0.11;fill:#6D6C6D;enable-background:new    ;}
	.st8{fill:#FFFFFF;stroke:#171717;stroke-width:2;}
	.st9{fill:#171717;stroke:#171717;stroke-width:2;}
	.st10{opacity:0.22;fill:#6D6C6D;enable-background:new    ;}
	.st11{opacity:0.3935;fill:#818181;enable-background:new    ;}
</style>
<g>
	<path class="st0" d="M50.3,259c1.5-62.6,26.6-121.3,71-165.8C167.2,47.3,228.2,22.1,293,22.1c64.8,0,125.8,25.3,171.7,71.1
		c44.5,44.5,69.6,103.1,71,165.8H549C547.5,192.8,521,130.8,474,83.8c-48.4-48.4-112.6-75-181-75c-68.4,0-132.7,26.6-181,75
		c-47,47-73.4,109-74.9,175.2H50.3z"/>
	<g>
		<rect x="291.1" y="36.3" class="st1" width="3.7" height="40.8"/>
		
			<rect x="454" y="159.5" transform="matrix(0.8659 -0.5003 0.5003 0.8659 -17.0951 258.9652)" class="st1" width="40.8" height="3.7"/>
		
			<rect x="377.3" y="82.8" transform="matrix(0.5006 -0.8657 0.8657 0.5006 125.2802 386.5909)" class="st1" width="40.8" height="3.7"/>
		<rect x="109.8" y="141" transform="matrix(0.5 -0.866 0.866 0.5 -83.9211 177.3636)" class="st1" width="3.7" height="40.8"/>
		<rect x="186.4" y="64.3" transform="matrix(0.8661 -0.5 0.5 0.8661 -17.128 105.4852)" class="st1" width="3.7" height="40.8"/>
		<g>
			
				<rect x="267.9" y="37.5" transform="matrix(0.9945 -0.1045 0.1045 0.9945 -3.2554 28.4498)" class="st1" width="3.7" height="15.6"/>
			
				<rect x="245" y="41.1" transform="matrix(0.9782 -0.2076 0.2076 0.9782 -4.7771 52.3211)" class="st1" width="3.7" height="15.6"/>
			
				<rect x="222.5" y="47.1" transform="matrix(0.9512 -0.3087 0.3087 0.9512 -5.9979 71.9539)" class="st1" width="3.7" height="15.6"/>
			
				<rect x="200.9" y="55.4" transform="matrix(0.9138 -0.4062 0.4062 0.9138 -8.218 87.8067)" class="st1" width="3.7" height="15.6"/>
		</g>
		<g>
			
				<rect x="308.4" y="43.4" transform="matrix(0.1055 -0.9944 0.9944 0.1055 237.8343 354.9569)" class="st1" width="15.6" height="3.7"/>
			
				<rect x="331.4" y="47.1" transform="matrix(0.2071 -0.9783 0.9783 0.2071 221.0774 370.6015)" class="st1" width="15.6" height="3.7"/>
			
				<rect x="353.8" y="53.1" transform="matrix(0.3087 -0.9512 0.9512 0.3087 197.7356 381.9261)" class="st1" width="15.6" height="3.7"/>
			
				<rect x="375.5" y="61.4" transform="matrix(0.4063 -0.9137 0.9137 0.4063 169.7551 387.7917)" class="st1" width="15.6" height="3.7"/>
		</g>
		<g>
			<polygon class="st1" points="506.2,245.5 505.8,241.8 521.4,240.2 521.8,243.9 			"/>
			
				<rect x="502.3" y="218.1" transform="matrix(0.9784 -0.2068 0.2068 0.9784 -34.4521 110.2655)" class="st1" width="15.6" height="3.7"/>
			
				<rect x="496.3" y="195.6" transform="matrix(0.9512 -0.3087 0.3087 0.9512 -36.3341 165.2513)" class="st1" width="15.6" height="3.7"/>
			
				<rect x="488" y="173.9" transform="matrix(0.9139 -0.4059 0.4059 0.9139 -28.6672 216.3557)" class="st1" width="15.6" height="3.7"/>
		</g>
		<g>
			
				<rect x="162.4" y="77.4" transform="matrix(0.8148 -0.5798 0.5798 0.8148 -18.9699 111.0325)" class="st1" width="3.7" height="15.6"/>
			
				<rect x="144.2" y="91.8" transform="matrix(0.7498 -0.6617 0.6617 0.7498 -29.3863 121.5938)" class="st1" width="3.7" height="15.6"/>
			
				<rect x="127.6" y="108.1" transform="matrix(0.6765 -0.7364 0.7364 0.6765 -43.4809 132.8558)" class="st1" width="3.7" height="15.6"/>
			
				<rect x="112.8" y="126" transform="matrix(0.5962 -0.8029 0.8029 0.5962 -61.1381 146.1282)" class="st1" width="3.7" height="15.6"/>
		</g>
		<g>
			
				<rect x="466.1" y="135.5" transform="matrix(0.8144 -0.5803 0.5803 0.8144 8.2495 300.4668)" class="st1" width="15.6" height="3.7"/>
			
				<rect x="451.6" y="117.3" transform="matrix(0.7496 -0.6619 0.6619 0.7496 36.1991 333.9445)" class="st1" width="15.6" height="3.7"/>
			
				<rect x="435.3" y="100.7" transform="matrix(0.6762 -0.7368 0.7368 0.6762 67.9624 359.7086)" class="st1" width="15.6" height="3.7"/>
			
				<rect x="417.4" y="85.9" transform="matrix(0.596 -0.803 0.803 0.596 101.3258 376.8972)" class="st1" width="15.6" height="3.7"/>
		</g>
		<g>
			<polygon class="st1" points="79.8,245.5 64.3,243.9 64.7,240.2 80.2,241.8 			"/>
			
				<rect x="74" y="212.1" transform="matrix(0.2077 -0.9782 0.9782 0.2077 -155.0165 248.4334)" class="st1" width="3.7" height="15.6"/>
			
				<rect x="80" y="189.7" transform="matrix(0.3087 -0.9511 0.9511 0.3087 -131.2247 214.3757)" class="st1" width="3.7" height="15.6"/>
			
				<rect x="88.3" y="168" transform="matrix(0.4062 -0.9138 0.9138 0.4062 -107.0574 186.7973)" class="st1" width="3.7" height="15.6"/>
		</g>
	</g>
	<path class="st1" d="M294.6,238.2c-8.6,0-15.5,7-15.5,15.5c0,8.6,7,15.5,15.5,15.5c8.6,0,15.5-7,15.5-15.5
		C310.2,245.1,303.2,238.2,294.6,238.2z M294.6,261.1c-4.1,0-7.4-3.3-7.4-7.4c0-4.1,3.3-7.4,7.4-7.4s7.4,3.3,7.4,7.4
		C302.1,257.8,298.7,261.1,294.6,261.1z"/>
	<g>
		<path class="st1" d="M306.9,244.2l66.6-154.1l-78.8,148.1C299.7,238.2,304.1,240.6,306.9,244.2z"/>
		<path class="st1" d="M281.8,262.4l-15.3,28.7h10.7l5.6,8.9l13.3-30.8c-0.5,0-1,0.1-1.5,0.1C289.3,269.3,284.6,266.6,281.8,262.4z"
			/>
	</g>
</g>
<g id="Page-1">
	<g id="pixeltrue-chatting-using-apps-1" transform="translate(25.000000, 20.000000)">
		<path id="Path_76_" class="st2" d="M322.3,256.2c2.2-2.3,5.5-5.6,9.9-8.9c3.8-2.9,6.9-4.6,10.8-6.8c5.6-3.1,12.6-6.9,20.7-11.3
			c12.5-1.2,23-2,30.9-2.6c14.6-1.1,38-2.9,64.8-3.5c5.5-0.1,10.8-0.2,10.8-0.2c15-0.3,18.8,0,34.4-0.2c11.5-0.1,11.4-0.3,17.7-0.2
			c9.4,0.1,17.2,0.4,22.4,0.7c3.1,0.2,9.5,0.7,15.8,1.4c1.2,0.1,3.1,0.3,5.4,0.9c2.9,0.7,5.1,1.7,6.6,2.4c-1.9,2.8-3.7,5.6-5.6,8.5
			c-6.2,9.2-12.6,18-18.9,26.4c-1,0.6-2.8,1.6-5.2,2.4c-5.1,1.7-9.4,1.3-10.8,1.2c-6.2-0.4-21.2-0.2-43.1,0.5
			c-9.7-0.2-19.5-0.5-29.2-0.7c-2.8,4.3-5.6,8.6-8.5,13c-18.9-1-37.7-2-56.6-3.1c3.8-4.2,7.5-8.3,11.3-12.5
			C378.1,260.9,350.2,258.5,322.3,256.2L322.3,256.2z"/>
		<path id="Path_77_" class="st3" d="M342.1,250.1c17,1.1,34,2.4,50.9,4c0.7,0.1,0.7-1,0-1c-17-1.5-33.9-2.8-50.9-4
			C341.5,249.1,341.5,250.1,342.1,250.1L342.1,250.1z"/>
		<path id="Path_78_" class="st3" d="M473,258.7c17.8-0.1,35.5,0.2,53.3,1.1c0.7,0,0.7-1,0-1c-17.8-0.9-35.5-1.3-53.3-1.1
			C472.3,257.7,472.3,258.7,473,258.7z"/>
		<path id="Path_79_" class="st3" d="M372.9,239.7c8.6,1.5,17.3,1.3,26,1.2c9.2-0.1,18.4,0.1,27.7,0.4c18.2,0.7,36.4,1.9,54.6,2.6
			c10.5,0.4,21,0.7,31.4,0.7c0.7,0,0.7-1,0-1c-36.5,0.1-72.8-3.7-109.2-3.8c-10.1,0-20.2,0.6-30.2-1.2
			C372.5,238.6,372.2,239.6,372.9,239.7z"/>
		<path id="Path_80_" class="st3" d="M455.8,232.3c25.9,0,51.7,0.8,77.6,2.3c0.7,0,0.7-1,0-1c-25.8-1.5-51.7-2.2-77.6-2.3
			C455.1,231.3,455.1,232.3,455.8,232.3z"/>
		<path id="Path_81_" class="st3" d="M572.4,227.3c-7.6,11.7-15.6,23-24,34.2c-0.4,0.5,0.5,1,0.9,0.5c8.4-11.1,16.4-22.5,24-34.2
			C573.7,227.3,572.8,226.8,572.4,227.3z"/>
		<path id="Path_82_" class="st3" d="M331.2,249c10.6-7.3,21.3-14.7,33.3-19.6c0.6-0.2,0.3-1.2-0.3-1c-12.1,5-22.9,12.4-33.6,19.7
			C330.1,248.5,330.6,249.4,331.2,249z"/>
		<path id="Path_83_" class="st3" d="M363.5,229.5c27.3-2.5,54.7-4.3,82-5.4c27.4-1.1,54.8-1.5,82.2-1.1c7.7,0.1,15.3,0.3,23,1
			c7.4,0.7,15.1,1.4,21.9,4.3c0.6,0.2,0.9-0.8,0.3-1c-5.8-2.4-12.3-3.2-18.5-3.9c-6.8-0.8-13.7-1.1-20.6-1.3
			c-13.7-0.3-27.5-0.3-41.2-0.2c-27.5,0.2-55,1.2-82.5,3c-15.5,1-31.1,2.2-46.6,3.6C362.8,228.5,362.8,229.6,363.5,229.5
			L363.5,229.5z"/>
		<path id="Path_84_" class="st3" d="M460.5,266.4c25.6,0.9,51.3,0.9,76.9-0.1c4.4-0.2,9.3-0.7,12-4.6c0.4-0.6-0.5-1.1-0.9-0.5
			c-2.7,3.9-8,4-12.2,4.1c-5.9,0.2-11.8,0.4-17.7,0.5c-12.4,0.2-24.8,0.2-37.2,0c-7-0.1-14-0.3-21-0.5
			C459.9,265.4,459.9,266.4,460.5,266.4L460.5,266.4z"/>
		<path id="Path_85_" class="st3" d="M330.7,248.1c-3,2.6-6.1,5.3-9.1,7.9c-0.4,0.3,0,0.9,0.4,0.9c27.8,2.4,55.7,4.8,83.5,6.7
			c0.7,0,0.7-1,0-1c-27.9-1.9-55.7-4.3-83.5-6.7c0.1,0.3,0.2,0.6,0.4,0.9c3-2.6,6.1-5.3,9.1-7.9
			C331.9,248.3,331.1,247.6,330.7,248.1L330.7,248.1z"/>
		<path id="Path_86_" class="st3" d="M417.2,252.5c-8,7.1-15.5,14.6-22.6,22.6c-0.4,0.5,0.3,1.2,0.7,0.7c7-8,14.6-15.6,22.6-22.6
			C418.4,252.8,417.7,252.1,417.2,252.5L417.2,252.5z"/>
		<path id="Path_87_" class="st3" d="M417.5,253.2c16.8-1.6,33.6-1.2,50.3,1.3c0.7,0.1,0.9-0.9,0.3-1c-16.7-2.5-33.7-3-50.5-1.3
			C416.9,252.3,416.9,253.3,417.5,253.2L417.5,253.2z"/>
		<path id="Path_88_" class="st3" d="M467.3,254.2c-5.6,8.1-11.3,16.2-17,24.3c-0.4,0.6,0.5,1.1,0.9,0.5c5.6-8.1,11.3-16.2,17-24.3
			C468.5,254.1,467.7,253.6,467.3,254.2L467.3,254.2z"/>
		<path id="Path_89_" class="st3" d="M394.7,276.3c18.6,0.9,37.2,1.8,55.8,2.8c0.7,0,0.7-1,0-1c-18.6-0.9-37.2-1.8-55.8-2.8
			C394.1,275.3,394.1,276.3,394.7,276.3z"/>
		<path id="Path_90_" class="st3" d="M409.1,269.9c2.9,0.5,5.7,1,8.6,1.5c0.7,0.1,0.9-0.9,0.3-1c-2.9-0.5-5.7-1-8.6-1.5
			C408.8,268.8,408.5,269.8,409.1,269.9z"/>
		<path id="Path_91_" class="st3" d="M415.8,266.7c-1.8,1.8-3.4,3.7-5,5.8c-0.4,0.5,0.5,1,0.9,0.5c1.5-1.9,3.1-3.8,4.8-5.6
			C417,267,416.3,266.2,415.8,266.7L415.8,266.7z"/>
		<path id="Path_92_" class="st3" d="M420.7,267.2c0-1.8,1.4-3,3.1-2.9c0.9,0,1.7,0.3,2.5,0.1c1.6-0.2,3-1.2,3.7-2.6
			c0.5-0.9,0.7-2,1.4-2.8c0.9-0.8,2.1-1.2,3.2-1.3c1.1-0.1,2.2,0,3.3,0.3c0.9,0.3,1.8,1,1.8,2c0,0.8-0.4,1.6-1.3,1.7
			c0,0.3,0.1,0.7,0.1,1c0.9-0.1,2,0.9,2.2,1.7c0.1,0.4,0.2,0.9,0.1,1.2c0,0.9-0.5,1.8-1.1,2.5c-0.6,0.7-1.3,1.2-2.2,1.5
			c-0.8,0.2-0.9,0.2-1.4-0.4c-0.6-0.7-0.3-0.9,0.3-1.4c3-2.5,5.4,0.8,8.4,0.9c2.1,0.1,4-1.2,4.4-3.3c0.2-1-0.1-2-0.6-2.9
			c-0.6-1-0.9-1.2-0.7-2.5c-0.2-0.8,0.1-1.1,0.7-1.1c0.4-0.2,0.7-0.2,1.1,0.1c0.8,0.2,1.3,0.8,1.8,1.5c0.4,0.5,1.3,0,0.9-0.5
			c-1.1-1.5-2.9-2.9-4.8-1.8c-1.8,1-1.1,2.9-0.3,4.3c0.9,1.5,1.5,3.1-0.1,4.5c-1.8,1.5-3.8,0.5-5.6-0.3c-1.8-0.9-3.8-1-5.5,0.2
			c-1,0.7-2.5,2.4-1.4,3.6c1.2,1.3,3.8,0.2,4.9-0.7c1.4-1.1,2.3-3,2.1-4.9c-0.3-1.9-1.8-3.3-3.6-3c-0.6,0.1-0.4,1,0.1,1
			c2.1,0,3-2.6,1.9-4.2c-1.5-2.2-5.3-2.3-7.6-1.4c-1.1,0.4-2.1,1.1-2.8,2.2c-0.4,0.8-0.6,1.7-1.1,2.4c-0.8,1.1-2.1,1.8-3.4,1.8
			c-1.6,0-2.8-0.5-4.2,0.6c-1.1,0.8-1.6,2-1.6,3.2C419.7,267.9,420.7,267.9,420.7,267.2L420.7,267.2z"/>
		<path id="Path_16_" class="st2" d="M497,64.6"/>
		<path id="Path_148_" class="st3" d="M387.5,213.8c-0.8,5.4-1.6,10.8-2.4,16.1c-14.6,4.4-21.7,7.3-21.4,8.6
			c0.3,1.6,11.6,0.8,33.7-2.3c0.3-7.7,0.7-15.4,1-23.1C394.8,213.4,391.1,213.6,387.5,213.8L387.5,213.8z"/>
		<path id="Path_149_" class="st2" d="M394.6,164.6c-0.7,0.6-1.1,1.2-2.7,4.2c-1.2,2.4-1.8,3.6-2.2,4.5c-2.8,6.3-5.5,16.3-5.5,16.3
			c-2.2,7.9-3.3,11.8-4,16c-1.1,5.9-1.5,10.9-1.8,14.5c2,0.9,4.5,1.9,7.3,2.5c6.7,1.6,12.6,1.1,16.4,0.4c0.7-4.9,1.7-10.1,3-15.7
			c1.2-5,2.5-9.5,3.9-13.7c1.5,0.9,3.6,2.4,6.3,4.2c8.6,6,11.2,8.8,16.3,12.1c3.3,2.1,8.2,4.8,14.9,6.9c1.5-0.2,5.8-1,9.4-4.5
			c5.4-5.3,4.9-12.6,4.8-13.6c-2.3-2.4-5.5-5.6-9.6-9.1c-7.2-6.1-13.5-9.9-17.9-12.5c-3.6-2.1-7.6-4.1-15.5-8.1
			c0,0-9.3-4.6-17.9-5.4C398.2,163.4,396.2,163.4,394.6,164.6L394.6,164.6z"/>
		<path id="Path_150_" class="st3" d="M378.7,219.5c0.9-9,2.5-17.9,4.9-26.6c1.2-4.3,2.5-8.5,4-12.7c1.5-4.2,3-8.5,5.2-12.5
			c1.3-2.3,3-3.1,5.6-3.2c2.3-0.1,4.7,0.2,6.9,0.8c4.2,1,8.2,2.6,12.1,4.3c7.4,3.2,14.6,7.1,21.3,11.6c7.6,5.2,14.7,11.1,21.1,17.8
			c0.4,0.5,1.2-0.2,0.7-0.7c-12-12.6-26.6-22.7-42.6-29.5c-3.9-1.7-7.9-3.3-12.1-4.3c-3.4-0.8-8.8-2-11.9,0.3c-1.3,1-2.1,2.5-2.8,4
			c-0.9,2-1.7,4-2.5,6c-1.8,4.5-3.4,9.1-4.9,13.8c-3.1,10.1-5.1,20.6-6.2,31.2C377.6,220.2,378.7,220.2,378.7,219.5L378.7,219.5z"/>
		<path id="Path_151_" class="st3" d="M378.5,220c7.1,4,15.4,5.1,23.3,3.2c0.7-0.2,0.4-1.2-0.3-1c-7.6,1.9-15.7,0.8-22.5-3.1
			C378.5,218.8,377.9,219.6,378.5,220L378.5,220z"/>
		<path id="Path_152_" class="st3" d="M402.9,222.4c1.2-9.8,3.4-19.5,6.5-28.9c0.2-0.6-0.8-0.9-1-0.3c-3.1,9.5-5.3,19.2-6.5,29.1
			C401.8,223,402.8,223,402.9,222.4L402.9,222.4z"/>
		<path id="Path_153_" class="st3" d="M406.2,192.5c13.8,7,24.1,20.5,39.6,24.1c0.7,0.1,0.9-0.9,0.3-1c-15.4-3.6-25.7-17-39.4-24
			C406.1,191.3,405.6,192.2,406.2,192.5L406.2,192.5z"/>
		<path id="Path_154_" class="st4" d="M390.4,223.5c3.5-11.1,7.4-22.5,11.6-34.1c1-2.8,2-5.5,3.1-8.2c7.2,3.8,14.4,7.6,21.6,11.4
			c10,5.3,20.1,10.6,30.1,16c-0.3,1.3-1.3,4.7-4.4,6.6c-2.3,1.4-4.9,1.3-7.7,0.7c-8.5-1.7-13.9-6.9-24.6-14.9
			c-2.4-1.8-6.2-4.6-11-7.8c-0.9,2.6-1.8,5.3-2.7,8.2c-2.3,7.7-3.8,15-4.7,21.6c-2,0.5-4.6,1-7.7,0.9
			C392.7,223.8,391.5,223.7,390.4,223.5L390.4,223.5z"/>
		<path id="Path_155_" class="st4" d="M408.2,192.8c-0.9-0.3-4.3,6.1-5.4,8.1c-2.6,4.9-6.1,12.2-9.3,21.8c0.7,0.3,1.5,0.6,2.4,0.7
			c2.5,0.4,4.6-0.2,5.7-0.6c1.8-9.6,3.7-17.2,5.1-22.6C407.8,196.9,408.9,193.1,408.2,192.8z"/>
		<path id="Path_156_" class="st3" d="M354.4,218c-2.3,6.1-4.7,12.3-7.1,18.4c-13.7,4.6-20.4,7.6-20.1,9.1
			c0.4,1.7,10.2,1.4,29.5-1.1c2.3-7.5,4.6-14.9,6.9-22.4C360.6,220.7,357.5,219.4,354.4,218z"/>
		<path id="Path_157_" class="st2" d="M374.1,158.2c-2.6,1.9-4.2,4.1-4.9,5.2c-3.3,5-5,7.5-6.1,9.7c-3.2,6.2-5.3,11.5-6.3,14
			c-3.3,8.6-4.9,15.7-6.4,21.9c-1.1,4.7-1.9,8.6-2.4,11.4c1.4,1.7,3.3,3.6,6,5.4c5.5,3.7,11,4.5,14,4.8c2.5-7.3,4.9-13.4,6.9-18.2
			c2.1-5.2,3.6-8.6,6.4-12.5c2-2.9,4-5,5.4-6.4c1.5,2.2,3.8,5.1,6.7,8.4c3.6,4,10.2,11.3,20.9,17.6c8.6,5.1,15.4,6.9,22.2,8.8
			c7.1,1.9,9.3,1.7,10.9,0.8c6.8-4,3.3-19.9,3.1-20.9c-6.6-5.1-11.6-9.6-14.9-12.8c-3-2.9-6.4-6.5-12.4-11.8
			c-1.6-1.4-3.2-2.9-5.5-4.8c-1.1-0.9-5-4.1-11.8-8.8c0,0-8.6-6-17-10.3c0,0-2.1-1.1-5.8-2.2c-3.1-0.9-4.3-1-5.5-0.8
			C377.2,156.6,376,156.9,374.1,158.2L374.1,158.2z"/>
		<path id="Path_158_" class="st3" d="M373.1,158.3c-15.2,16.9-21.6,39.3-25.8,61.1c-0.1,0.7,0.9,0.9,1,0.3
			c4.2-21.6,10.5-43.9,25.5-60.6C374.3,158.5,373.6,157.7,373.1,158.3L373.1,158.3z"/>
		<path id="Path_159_" class="st3" d="M347.7,220.5c5,5.8,11.9,9.7,19.5,10.9c0.7,0.1,0.9-0.9,0.3-1c-7.4-1.2-14.1-5-19.1-10.7
			C348,219.3,347.3,220,347.7,220.5z"/>
		<path id="Path_160_" class="st3" d="M368.2,231c2.2-6.8,4.8-13.5,7.9-20c2.8-5.9,5.7-12.7,10.8-17c0.5-0.4-0.2-1.2-0.7-0.7
			c-5.1,4.4-8.1,11.2-10.9,17.2c-3.1,6.6-5.8,13.3-8,20.3C367,231.3,368,231.6,368.2,231L368.2,231z"/>
		<path id="Path_161_" class="st3" d="M383.2,189.6c14.1,19.5,33.4,36.9,58.2,40.3c0.7,0.1,0.7-0.9,0-1
			c-24.4-3.2-43.3-20.6-57.3-39.7C383.7,188.5,382.8,189.1,383.2,189.6z"/>
		<path id="Path_162_" class="st3" d="M374,159c5.7-4.2,12.9,0.4,18.1,3.3c5.4,2.9,10.6,6.1,15.7,9.6c10.2,7.1,19.6,15.2,28,24.4
			c0.4,0.5,1.2-0.2,0.7-0.7c-13.8-15-30.4-27.7-48.8-36.6c-4.4-2.2-9.8-3.9-14.2-0.7C372.9,158.4,373.5,159.3,374,159L374,159z"/>
		<path id="Path_163_" class="st5" d="M355.8,225.8c2.3-4.7,6.3-12.9,11.2-23.4c9.5-19.9,11-23.8,15.4-25.3
			c7.5-2.5,14.6,5,31.1,16.8c9.2,6.6,21.9,14.9,38.1,23.3c0.3,1.8,1,6.7-1.9,9.8c-1.3,1.3-4.2,3.4-13.1,1.9
			c-3.4-0.6-19.5-3.6-39.1-23.1c-4.9-4.9-8.6-9.4-11-12.5c-1,1.2-2.5,3.1-4.2,5.5c-2.9,4.3-4.8,8.2-9.3,18.9
			c-1.4,3.4-3.2,7.8-5.2,13c-1.3,0.1-3.8,0.1-6.5-1.1C358.5,228.5,356.7,226.8,355.8,225.8z"/>
		<path id="Path_164_" class="st4" d="M383.8,188.7c1.3,0.7,3.3,1.7,5.6,3.1c14.6,8.7,14.9,13.9,25.7,20.4c8.4,5,11.6,3.8,20.3,10.4
			c3.4,2.5,5.9,5,7.5,6.7c-3.3-0.3-7.9-1-13.2-2.6c-6.9-2.2-11.6-5-15.1-7.2c-1.8-1.1-9-5.6-17-13.6
			C393.6,201.9,388.6,196.2,383.8,188.7L383.8,188.7z"/>
		<path id="Path_165_" class="st4" d="M385.4,193.4c-0.5-0.6-4.1,0.9-7.3,3.3c-5.7,4.3-7.3,9.3-12.6,19.1c-1.5,2.9-3.9,7-7,11.9
			c3.1,1.2,6.1,2.5,9.2,3.7c0.7-1.9,6-15.9,9.9-24.4c1.3-2.7,2-4.2,3.2-6.3C383.5,196.1,385.8,194,385.4,193.4L385.4,193.4z"/>
		<path id="Path_166_" class="st2" d="M528.1,134.4c0.9,0.5,0.9,1,2,2c0.9,0.8,1.3,0.7,1.7,1.3c0.4,0.7,0.5,1.5,0.5,2.1
			c0.4,0,1.1,0.1,1.8,0.6c0.2,0.1,1.6,1.1,2,3.3c0.3,1.5-0.1,2.7-0.2,3.2c0.4,0.3,1,1,1.2,2c0.3,1.2-0.1,2.4-0.6,3.6
			c-1.4,3.5-2.7,4.9-4.1,7.8c-0.4,0.9-1,2.2-1.7,3.9c0,1.3,0,3.4,0.2,6c0.4,3.9,1.2,6.6,1.4,7.5c1.2,4.5,3.3,14.9,3.5,24.5
			c0.1,4.9,0.2,12.8-3.2,20.8c-1.3,3-3.2,7.3-7,9c-0.6,0.3-5.1,2.3-8.2-0.9c-1.1-1.2-1.7-2.6-2-3.6c-0.1-0.5-0.1-1.3-0.1-2.3
			c0.1-4.2,2-7.2,2.7-8.3c2.3-4,3.1-8.4,4.3-15.8c0.8-4.6,0.6-8.6,0.2-16.4c-0.2-5.4-0.8-12.6-1.9-21.3c-0.6-0.2-1.3-0.5-1.9-1.3
			c-0.8-1.3-0.3-2.4-1-4.7c-0.5-1.7-0.9-1.4-1.7-3.6c-0.6-1.6-1.1-3.1-0.8-4.8c0.1-0.3,0.4-2.4,1.5-2.9c1.5-0.7,3.1,1.7,3.5,2.3
			c0.8,1.2,1.2,2.4,1.4,3.2c0.8-1.4,1.7-3,2.5-5c0.4-0.9,0.7-1.8,1-2.6c-0.1-0.8-0.3-1.9-0.4-3.2c-0.2-1.8-0.2-2.7,0-3.9
			c0.1-0.8,0.5-2.5,1.5-3C527,133.8,527.8,134.1,528.1,134.4L528.1,134.4z"/>
		<path id="Path_167_" class="st3" d="M531.5,163c1.7-3,3.7-6.1,5.1-9.3c1-2.3,1.4-5.2-0.1-7.4c-0.4-0.6-1.3,0-0.9,0.5
			c1.8,2.5,0.6,5.6-0.7,8.1c-1.4,2.5-2.8,5-4.2,7.5C530.3,163.1,531.2,163.6,531.5,163z"/>
		<path id="Path_168_" class="st3" d="M533.9,152.1c2.5-3.3,4.5-11.4-1.3-12.7c-0.7-0.1-0.9,0.9-0.3,1c5.1,1.1,2.8,8.4,0.7,11.2
			C532.7,152.1,533.6,152.6,533.9,152.1L533.9,152.1z"/>
		<path id="Path_169_" class="st3" d="M531.2,149c2.4-3.4,2.5-8.1,0.7-11.8c-0.3-0.6-1.2-0.1-0.9,0.5c1.7,3.4,1.4,7.6-0.7,10.7
			C530,149,530.9,149.6,531.2,149z"/>
		<path id="Path_170_" class="st3" d="M529.2,146.4c1-3,1.3-6.3,0.6-9.5c-0.4-1.7-2.1-4.6-4.2-3c-2,1.5-1.1,5.7-0.9,7.7
			c0.2,2,0,3.5-1.1,5.2c-0.9,1.5-1.7,3.1-2.3,4.8c-0.2,0.6,0.8,0.9,1,0.3c0.8-2.2,2.2-4.1,3.1-6.2c0.9-2,0.3-4.2,0.1-6.3
			c-0.1-1-0.3-2.5,0-3.4c0-0.7,0.5-0.9,1.3-0.5c1-0.4,1.5-0.1,1.6,0.9c0.2,0.7,0.3,1.4,0.4,2.1c0.3,2.6,0,5.1-0.8,7.6
			C528,146.8,529,147,529.2,146.4L529.2,146.4z"/>
		<path id="Path_171_" class="st3" d="M532.3,137.8c-0.4-1.6-2.2-2.9-3.7-1.8c-0.6,0.4,0,1.3,0.5,0.9c1-0.7,2,0.2,2.2,1.2
			C531.5,138.7,532.5,138.4,532.3,137.8z"/>
		<path id="Path_172_" class="st3" d="M522,150.8c-0.6-2-1.9-4.6-4.2-5c-2.2-0.4-2.9,1.7-3,3.4c-0.2,3.3,1.6,5.6,2.4,8.6
			c0.7,2.4,0.5,4.9,3,6.3c0.6,0.3,1.1-0.6,0.5-0.9c-1.9-1.1-1.9-2.9-2.3-4.8c-0.3-1.5-1-2.8-1.6-4.2c-0.7-1.6-1.5-4.1-0.9-5.9
			c0-0.2,0.1-0.3,0.1-0.5c0.8-0.2,1.6-0.5,2.3-0.8c0.4,0.1,1,0.9,1.3,1.2c0.7,0.8,1,1.7,1.3,2.8C521.2,151.7,522.2,151.5,522,150.8
			L522,150.8z"/>
		<path id="Path_173_" class="st3" d="M520,163.6c1.4,11.9,3,24.3,1.9,36.3c-0.5,5.7-1.9,10.9-4.2,16.1c-1.9,4.3-3.2,8.3-2.3,13
			c0.1,0.7,1.1,0.4,1-0.3c-1-5.2,1.1-9.5,3.1-14.2c2.1-4.9,3.1-10,3.5-15.2c0.9-11.8-0.6-24-2-35.7C521,163,519.9,163,520,163.6
			L520,163.6z"/>
		<path id="Path_174_" class="st3" d="M530.5,162.1c-0.8,2.4-0.4,5-0.1,7.5c0.3,2.6,0.7,5.2,1.2,7.7c1.1,5.6,2.4,11.1,3.1,16.8
			c0.7,5.6,0.8,11.2,0.1,16.8c-0.6,5.5-1.7,11.6-4.8,16.3c-1.5,2.3-3.7,4.5-6.5,5c-3,0.6-5.7-1.2-7.1-3.8c-0.3-0.6-1.2-0.1-0.9,0.5
			c2,3.6,6.1,5.4,10,3.7c4.6-2,7.1-7.2,8.4-11.8c3.5-12,2.5-24.6,0.1-36.7c-0.7-3.4-1.4-6.9-2-10.4c-0.3-1.9-0.6-3.7-0.8-5.6
			c-0.2-2-0.4-4,0.2-5.9C531.7,161.8,530.7,161.5,530.5,162.1L530.5,162.1z"/>
		<path id="Path_175_" class="st6" d="M533.8,140.7c0.1,1.7,0.1,3.9-0.3,6.3c-1.1,6.6-4.4,10.8-5.9,12.4c0,2-0.1,5,0,8.6
			c0.4,16.4,3,24.4,3.4,32.1c0.4,7.5-1,18.4-9.6,32.5c1.1,0.1,2.9,0.1,4.8-0.9c1.7-0.9,4.3-3,6.7-9.9c2.2-6.3,4.5-17.9,1.9-31.2
			c-1.2-5.8-3-10.3-3.9-20c-0.2-2.6-0.3-4.7-0.4-6.2c0.6-1.4,1.4-3.3,2.7-5.3c2-3.4,3.3-4.5,3.7-7c0.2-1.7-0.1-3.5-0.8-5.2
			c0.1-0.4,0.3-2.3-0.5-4.1C535,141.5,534.2,140.9,533.8,140.7L533.8,140.7z"/>
		<path id="Path_176_" class="st7" d="M530.4,166.9c-0.2,0,0.4,6,1.5,18c1,10.6,1.5,15.8,1.5,16.2c0.3,15.7-4.5,26.8-3.7,27.1
			c0.6,0.3,3.3-5.3,4.9-12c2.2-9.3,1.3-17.4,0.8-22.1c-0.5-4.1-0.7-3-3.1-16.9C531,170.4,530.5,166.9,530.4,166.9L530.4,166.9z"/>
		<path id="Path_177_" class="st1" d="M445.8,198.9c-3.3,6.6-4.2,12.5-5.1,18.2c-0.5,3.1-1,7.6-0.9,12.9c10.7,2.9,20.3,4.4,28.1,5.2
			c10.2,1.1,7.2-0.2,32.9,0.7c12.8,0.4,19.4,0.9,21.3-2.6c1.5-3-2.2-5.9-2.4-12.7c-0.2-5.5,2-9.9,3.7-12.7
			c-10.1-4.1-21.9-8.2-35.1-11.6c-13.1-3.4-25.3-5.6-36.2-7C450.5,191.3,448,194.5,445.8,198.9z"/>
		<path id="Path_178_" class="st4" d="M446.5,198.3c2.5,5,7.8,13.6,17.7,18.4c3.9,1.9,8.2,3.1,21.1,3.7c8.3,0.4,19.9,0.6,33.9-0.5
			c-0.2,3,0.4,5.1,1,6.5c0.9,2.1,2.1,3.3,2,5.5c0,0.5-0.1,1.8-1,2.9c-1.2,1.4-3.3,1.6-4.3,1.6c-9.9,0.5-13.3,0.1-13.3,0.1
			c-8.3-0.9-15.7-0.7-21.8-0.5c-2.6,0.1-4.1,0.2-6.9,0.1c-1.6,0-6-0.1-12.3-1c-9.3-1.3-17.9-3.4-22.7-4.8c-0.1-6.2,0.4-11.2,1-14.9
			c0.9-5.6,1.9-8.8,2.3-9.8C444.2,202.6,445.5,200.1,446.5,198.3L446.5,198.3z"/>
		<path id="Path_179_" class="st6" d="M442.7,207.3c1.3,2.7,3.6,6.6,7.5,10.1c6.5,6,13.6,7.6,21.9,9.5c17.7,4.2,35.8,9,35.6,9.8
			c-0.1,0.5-6.8-0.6-18.4-0.8c-2.8,0-4.6-0.1-7.3,0c-5.2,0.1-6.6,0.4-9.7,0.2c-3.3-0.1-5.8-0.6-8.4-1.1c-10.5-2.1-21-4.4-24.3-5.2
			c0-2.2,0.2-4.5,0.4-6.9C440.6,217.3,441.6,212,442.7,207.3L442.7,207.3z"/>
		<path id="Path_180_" class="st8" d="M543.2,227.4c-7.3,1-11.5,1.2-18.3,3.2c-3.2,0.9-5.7,1.8-7.4,2.5c-1.1-3-2.3-7.8-1.8-13.8
			c0.3-3.5,1.2-6.4,2.1-8.6c1.9,0.5,4.3,0.9,7.1,1.1c3.5,0.2,6.4-0.1,8.7-0.4c0.9-3.1,1.7-6.2,2.5-9.3c1.5-0.4,3.1-0.9,4.7-1.3
			c0.1-0.9,0.3-1.7,0.4-2.6c1.9,0.9,5,2.3,8.8,4c7.2,3.1,8.2,3.2,9.8,4.6c4.2,3.7,6.2,11.2,3.1,15.5
			C561,224.8,555.1,225.7,543.2,227.4z"/>
		<path id="Path_181_" class="st3" d="M540.6,198.1c-0.2,1.6-0.3,3.2-0.3,4.9c0,0.7,1.1,0.7,1,0c-0.1-1.5,0-3.1,0.2-4.6
			C541.7,197.8,540.7,197.5,540.6,198.1L540.6,198.1z"/>
		<path id="Path_182_" class="st3" d="M551.8,206.9c0.3,1.3-0.5,2.4-1.6,2.9c-0.6,0.3-0.1,1.2,0.5,0.9c1.6-0.7,2.4-2.4,2.1-4.1
			C552.7,206,551.7,206.3,551.8,206.9L551.8,206.9z"/>
		<path id="Path_183_" class="st3" d="M547.9,206.6c0.4,0,0.8,0.1,1.1,0.4c0.1,0.1,0.1,0.1,0.2,0.2c0.2-0.2,0.2-0.3,0.1-0.2
			c-0.1-0.1-0.4-0.1-0.5-0.1c-0.2-0.1-0.3-0.1-0.5-0.2c-0.1,0-0.2-0.1-0.3-0.2c-0.3,0.2-0.3,0.3-0.1,0.4c0.1,0.1,0.4,0.3,0.6,0.4
			c0.2,0.1,0.4,0.2,0.6,0.4c0.6,0.3,1-0.4,0.6-0.8c-0.2-0.3-0.4-0.4-0.8-0.6c-0.6-0.2-0.9,0.8-0.3,1c0.1,0.1,0.2,0.2,0.3,0.3
			c0.2-0.3,0.4-0.6,0.6-0.8c-0.5-0.3-0.9-0.7-1.4-0.9c-0.4-0.2-0.9-0.1-1.1,0.2c-0.6,0.9,0.7,1.6,1.4,1.8c0.4,0.1,0.8,0.2,1.2,0.1
			c0.4-0.1,0.6-0.6,0.5-1c-0.3-0.9-1.5-1.3-2.3-1.3C547.3,205.5,547.3,206.5,547.9,206.6L547.9,206.6z"/>
		<path id="Path_184_" class="st0" d="M558,205.3c1.5,0.4,3.9,1.3,6.3,3.2c0.8,0.7,2.6,2.1,3.7,4.1c2,3.9,1.1,9.3-2.4,12.8
			c-3.5,3.5-9,4.7-14.2,3.2C553.6,220.8,555.8,213.1,558,205.3z"/>
		<path id="Path_185_" class="st3" d="M559.7,192.1c-3.2,12-6.5,23.9-9.7,35.9c-0.5,1.9,2.5,2.8,3,0.8c3.2-12,6.5-23.9,9.7-35.9
			C563.2,191,560.2,190.2,559.7,192.1z"/>
		<path id="Path_186_" class="st9" d="M552.7,220.7c-0.6-2.3-2-3.7-3.7-5.4c-3.6-3.6-5.2-2.9-7.4-5.3c-3.5-4-0.7-7.1-4.2-10.7
			c-3-3-7.4-3.3-8.5-3.3c-1,0-5-0.1-8.1,2.6c-2.7,2.3-3.7,5.8-3.2,6.1c0.2,0.1,0.7-0.1,2.3-1.9c-0.5,0.5-1.1,1.3-1.5,2.4
			c-0.4,1.3-0.3,2.6-0.1,2.6c0.2,0,0.2-0.7,1-1.2c0.4-0.3,0.9-0.4,1.2-0.4c-0.9,1-1.7,2.2-1.4,3.5c0.7,3.6,8.9,5.3,11.6,5.9
			c8.8,1.8,14,0.1,16.7,3.4c0.2,0.3,1.3,1.6,0.9,2.9c-0.6,1.6-3.4,2.5-5.1,1.7c-1.5-0.7-1.7-2.3-2-2.3c-0.4,0.1-0.2,2.9,1.5,5.5
			c0.6,0.9,1.1,1.7,2.1,2.2c1.8,0.9,4,0.4,5.3-0.4C553,227,553.3,223.2,552.7,220.7L552.7,220.7z"/>
		<path id="Path_187_" class="st10" d="M540.8,222.5c0-0.5,0.1-1.3,0.3-1.3c0.1,0,0.2,0.2,0.2,0.2c0,0-0.8-0.7-0.8-1.5
			c0-0.4,0.2-0.7,0.3-0.9c-3.3,1-7.2,1.9-11.7,2.5c-4.9,0.7-9.3,0.9-13.1,0.8c-0.2,1.4-0.3,3.4,0.2,5.8c0.4,1.9,1,3.5,1.6,4.7
			c5.3-2.3,9.5-3.3,12.2-3.7c1.3-0.2,4.4-0.7,5.9-0.9c2.8-0.4,5-0.7,6.6-0.9c-0.2-0.2-0.4-0.6-0.7-1.1
			C541.5,225.5,540.8,224.1,540.8,222.5L540.8,222.5z"/>
		<path id="Path_188_" class="st11" d="M569,217.3c-1.1,3.1-4.1,5.1-7.4,5.1c-3.9-0.1-6.1-3-6.3-3.3c-0.9,3.3-1.8,6.6-2.6,9.9
			c0.8,0.2,2,0.3,3.3,0.3c4.3-0.1,7.3-2.1,7.9-2.5c1-0.7,4.1-3.1,4.9-7.2C569,218.6,569,217.8,569,217.3L569,217.3z"/>
		<path id="Path_189_" class="st2" d="M508.1,146.1c1.5,2.1,3.2,4.3,5.2,6.6c2.7,3.1,5.3,5.6,7.8,7.8c3.5-3.4,7.3-6.9,11.2-10.5
			c3.7-3.4,7.5-6.5,11.1-9.5c-0.9-1.8-2-3.8-3.6-5.8c-3-4-6.4-6.7-8.9-8.4c-5.8,4.1-11.9,9-18,14.9
			C511.3,142.8,509.7,144.4,508.1,146.1L508.1,146.1z"/>
		<path id="Path_190_" class="st3" d="M514.6,140.7c4.9-4.9,10.2-9.4,15.8-13.5c0.5-0.4,0-1.3-0.5-0.9c-5.7,4.1-11,8.7-16,13.6
			C513.4,140.5,514.1,141.2,514.6,140.7z"/>
		<path id="Path_191_" class="st3" d="M530.2,127.1c5,3.7,9.1,8.4,12.4,13.7c0.3,0.6,1.2,0,0.9-0.5c-3.3-5.5-7.6-10.2-12.7-14.1
			C530.2,125.8,529.6,126.7,530.2,127.1z"/>
		<path id="Path_192_" class="st3" d="M514.4,139.5c-2.5,2.2-4.9,4.5-7.2,6.9c-0.4,0.5,0.3,1.2,0.7,0.7c2.3-2.4,4.6-4.7,7.2-6.9
			C515.7,139.8,515,139.1,514.4,139.5z"/>
		<path id="Path_193_" class="st3" d="M507.4,147.4c3.9,4.8,8.1,9.4,12.6,13.7c0.5,0.4,1.2-0.3,0.7-0.7c-4.5-4.3-8.7-8.8-12.6-13.7
			C507.7,146.1,506.9,146.9,507.4,147.4z"/>
		<path id="Path_194_" class="st3" d="M521.1,161.3c7.3-6.9,14.7-13.6,22.4-20.1c0.5-0.4-0.2-1.2-0.7-0.7
			c-7.6,6.5-15.1,13.2-22.4,20.1C519.9,161,520.7,161.7,521.1,161.3z"/>
		<path id="Path_195_" class="st3" d="M511.7,147c2.3,3,4.8,6,7.3,8.8c0.4,0.5,1.2-0.2,0.7-0.7c-2.5-2.9-5-5.8-7.3-8.8
			C512,145.8,511.3,146.5,511.7,147z"/>
		<path id="Path_196_" class="st3" d="M512.4,147c5.2-5.7,11.4-10.5,17.5-15.2c0.5-0.4,0-1.3-0.5-0.9c-6.2,4.7-12.5,9.5-17.7,15.3
			C511.2,146.8,512,147.5,512.4,147z"/>
		<path id="Path_197_" class="st3" d="M530,131.9c3.2,2.4,6.1,5,8.7,7.9c0.4,0.5,1.2-0.2,0.7-0.7c-2.7-3-5.7-5.7-8.9-8.1
			C530,130.6,529.5,131.5,530,131.9z"/>
		<path id="Path_198_" class="st3" d="M519.6,156.2c1.8-0.1,3.1-0.9,4.5-2c1.8-1.4,3.5-2.8,5.3-4.3c3.6-3.1,7.1-6.3,10.5-9.6
			c0.5-0.5-0.3-1.2-0.7-0.7c-2.9,2.9-5.9,5.7-9,8.4c-1.5,1.3-3.1,2.6-4.6,3.9c-1.7,1.3-3.5,3.2-5.8,3.3
			C518.9,155.1,518.9,156.2,519.6,156.2L519.6,156.2z"/>
		<path id="Path_199_" class="st7" d="M528.4,127.4c-0.8,1.5-2,3.8-3.4,6.5c-3.5,6.8-5.3,10.3-5.8,12.4c-0.7,2.8-1.3,7.8,1.7,14.8
			c-4.4-4.6-8.7-9.3-13.1-14C514.6,140.5,521.5,133.9,528.4,127.4L528.4,127.4z"/>
		<path id="Path_207_" class="st2" d="M509.7,139.2c-1.2,0.5-1.1,1-2.6,2c-1.2,0.8-1.6,0.7-2.1,1.3c-0.6,0.7-0.6,1.5-0.6,2.1
			c-0.5,0-1.3,0.1-2.3,0.6c-0.3,0.1-2.1,1.1-2.6,3.3c-0.3,1.5,0.1,2.7,0.3,3.2c-0.5,0.3-1.2,1-1.5,2c-0.4,1.2,0.1,2.4,0.8,3.6
			c1.8,3.5,3.4,4.9,5.3,7.8c0.6,0.9,1.3,2.2,2.1,3.9c0,1.3,0,3.4-0.3,6c-0.5,3.9-1.5,6.6-1.8,7.5c-1.5,4.5-4.3,14.9-4.5,24.5
			c-0.1,4.9-0.3,12.8,4.1,20.8c1.6,3,4,7.3,8.9,9c0.8,0.3,6.4,2.3,10.4-0.9c1.4-1.2,2.2-2.6,2.6-3.6c0.1-0.5,0.2-1.3,0.1-2.3
			c-0.1-4.2-2.6-7.2-3.5-8.3c-3-4-3.9-8.4-5.4-15.8c-1-4.6-0.8-8.6-0.3-16.4c0.3-5.4,0.9-12.6,2.4-21.3c0.7-0.2,1.7-0.5,2.4-1.3
			c1-1.3,0.4-2.4,1.2-4.7c0.6-1.7,1.1-1.4,2.1-3.6c0.8-1.6,1.4-3.1,1.1-4.8c-0.1-0.3-0.5-2.4-2-2.9c-1.9-0.7-4,1.7-4.5,2.3
			c-1.1,1.2-1.5,2.4-1.8,3.2c-1.1-1.4-2.2-3-3.2-5c-0.4-0.9-0.9-1.8-1.2-2.6c0.2-0.8,0.4-1.9,0.6-3.2c0.2-1.8,0.3-2.7,0-3.9
			c-0.2-0.8-0.6-2.5-2-3C511.1,138.6,510.2,139,509.7,139.2L509.7,139.2z"/>
		<path id="Path_208_" class="st3" d="M506.5,167.3c-1.7-2.4-3.5-4.8-5.2-7.3c-1.6-2.3-3.5-5.6-1.2-8.2c0.4-0.5-0.3-1.2-0.7-0.7
			c-1.8,2-1.6,4.7-0.5,7c1.7,3.4,4.4,6.6,6.7,9.7C505.9,168.4,506.8,167.9,506.5,167.3z"/>
		<path id="Path_209_" class="st3" d="M503.2,156.3c-1.7-1.7-3-4.1-3-6.5c0-2.4,1.8-4.2,4-4.5c0.7-0.1,0.4-1.1-0.3-1
			c-2.4,0.4-4.4,2.3-4.7,4.8c-0.4,3,1.3,6,3.3,8C503,157.6,503.7,156.8,503.2,156.3L503.2,156.3z"/>
		<path id="Path_210_" class="st3" d="M506.7,153.3c-2.6-3-3-7.3-0.9-10.6c0.3-0.6-0.6-1.1-0.9-0.5c-2.4,3.7-1.9,8.6,1,11.9
			C506.4,154.5,507.1,153.8,506.7,153.3z"/>
		<path id="Path_211_" class="st3" d="M509.5,151c-1.1-2.7-1.5-5.7-0.8-8.5c0.4-1.6,2.4-4.7,4.1-2.2c0.7,1,0.4,2.6,0.3,3.7
			c-0.2,2.2-1,4.6,0.2,6.7c0.6,1,1.4,1.8,2,2.7c0.8,1.1,1.4,2.3,2,3.5c0.3,0.6,1.2,0.1,0.9-0.5c-0.7-1.6-1.6-3.1-2.7-4.4
			c-0.6-0.8-1.4-1.6-1.7-2.6c-0.3-1,0-2.1,0.1-3.1c0.3-2.1,1.1-6-1.1-7.4c-2-1.3-4.2,0.6-4.9,2.5c-1.2,3.2-0.7,6.9,0.6,10
			C508.7,151.9,509.7,151.6,509.5,151z"/>
		<path id="Path_212_" class="st3" d="M505.5,143c0.4-1.2,1.9-1.8,3.1-1.2c0.6,0.3,1.1-0.6,0.5-0.9c-1.7-0.9-3.9,0-4.6,1.8
			C504.3,143.3,505.3,143.6,505.5,143z"/>
		<path id="Path_213_" class="st3" d="M518.7,156c0.4-1.1,0.9-2.1,1.8-2.9c0.3-0.3,0.7-0.6,1.1-0.9c1-0.6,1.4-0.6,2.4-0.2
			c1.2,0.4,1.4,0.7,1.5,2c0,0.4,0,0.8,0,1.2c-0.1,1.3-0.6,2.5-1.2,3.7c-0.7,1.3-1.6,2.5-2,4c-0.6,2.2-0.7,4.1-3.1,5.1
			c-0.6,0.3-0.1,1.2,0.5,0.9c1-0.4,1.9-1.1,2.5-2.1c0.8-1.3,0.7-2.8,1.2-4.2c0.6-1.5,1.6-2.8,2.3-4.2c0.6-1.4,0.9-2.9,0.8-4.4
			c-0.1-2.1-1.3-3.8-3.6-3.4c-2.6,0.4-4.5,2.7-5.3,5C517.4,156.3,518.4,156.6,518.7,156L518.7,156z"/>
		<path id="Path_214_" class="st3" d="M518.9,168.4c-1,6.3-1.8,12.6-2.3,18.9c-0.5,5.6-0.8,11.3-0.2,17c0.5,5.2,1.8,10.3,4.3,14.9
			c2.5,4.7,5.5,9,4.2,14.6c-0.2,0.7,0.8,0.9,1,0.3c1.2-4.9-0.6-8.8-2.9-13c-2.8-4.9-4.6-9.9-5.3-15.6c-0.7-5.6-0.4-11.3,0-17
			c0.6-6.6,1.3-13.2,2.4-19.8C520,168,519,167.7,518.9,168.4L518.9,168.4z"/>
		<path id="Path_215_" class="st3" d="M505.6,167.4c0.7,1.5,0.5,3.2,0.3,4.8c-0.2,1.8-0.5,3.6-0.9,5.5c-0.6,3.2-1.5,6.4-2.3,9.5
			c-1.6,6.2-3.2,12.5-3.4,18.9c-0.2,6.4,0.6,12.9,2.7,19c1.8,5,4.9,9.9,9.8,12.1c4.7,2.1,10.5,1.1,13.6-3.3c0.4-0.6-0.5-1.1-0.9-0.5
			c-3.3,4.8-10,4.7-14.4,1.6c-4.8-3.3-7-9.1-8.3-14.6c-1.4-6.1-1.8-12.4-1.1-18.5c0.7-6.1,2.4-11.9,3.9-17.8c0.8-3.2,1.5-6.3,2-9.6
			c0.4-2.5,0.9-5.3-0.2-7.6C506.3,166.2,505.4,166.8,505.6,167.4L505.6,167.4z"/>
		<path id="Path_216_" class="st6" d="M502.5,145.5c-0.1,1.7-0.1,3.9,0.4,6.3c1.4,6.6,5.6,10.8,7.5,12.4c0.1,2,0.1,5,0,8.6
			c-0.5,16.4-3.7,24.4-4.3,32.1c-0.5,7.5,1.2,18.4,12.2,32.5c-1.5,0.1-3.7,0.1-6.1-0.9c-2.1-0.9-5.5-3-8.5-9.9
			c-2.8-6.3-5.8-17.9-2.4-31.2c1.5-5.8,3.8-10.3,5-20c0.3-2.6,0.4-4.7,0.5-6.2c-0.8-1.4-1.9-3.3-3.4-5.3c-2.6-3.4-4.3-4.5-4.7-7
			c-0.3-1.7,0.1-3.5,1-5.2c-0.1-0.4-0.4-2.3,0.6-4.1C500.9,146.4,502,145.8,502.5,145.5L502.5,145.5z"/>
		<path id="Path_217_" class="st7" d="M506.9,171.8c0.2,0-0.5,6-1.9,18c-1.3,10.6-1.9,15.8-1.9,16.2c-0.4,15.7,5.7,26.8,4.7,27.1
			c-0.7,0.3-4.2-5.3-6.2-12c-2.8-9.3-1.7-17.4-1-22.1c0.6-4.1,0.8-3,3.9-16.9C506,175.2,506.7,171.7,506.9,171.8z"/>
	</g>
</g>
</svg>
